<svg xmlns="http://www.w3.org/2000/svg" viewBox="0 0 1200 630" width="1200" height="630">
  <rect width="1200" height="630" fill="rgb(85,5,160)"/>
  <g transform="translate(120 155) scale(0.156)">
    <path fill="rgb(254,254,254)" d="M 988.62 804.395 C 991.724 804.113 994.836 803.929 997.951 803.845 C 1057.38 802.266 1110.91 839.193 1109.58 902.059 C 1107.14 1016.7 968.575 1078.35 899.535 1154.04 C 845.795 1208.49 815.079 1276.78 816.835 1354.52 C 818.623 1433.67 851.14 1492.75 907.403 1547.2 C 899.139 1542.9 890.306 1539.25 881.739 1535.54 C 849.299 1520.54 818.749 1501.74 790.728 1479.55 C 759.899 1455.24 730.195 1425.02 707.605 1392.94 C 653.274 1315.77 649.322 1212.94 673.911 1123.99 C 712.081 985.892 836.7 821.496 988.62 804.395 z"/>
    <path fill="rgb(254,254,254)" d="M 824.522 467.404 C 870.502 463.309 916.536 474.643 955.357 499.619 C 1052.48 563.058 1090.52 689.608 1112.69 796.678 C 1029.58 731.18 927.727 758.624 846.422 811.845 C 736.867 883.558 666.8 1003.28 639.639 1129.83 C 634.736 1150.82 632.823 1170.77 631.298 1192.16 C 614.706 1082.75 636.934 981.593 683.398 881.82 C 705.543 829.852 752.171 784.207 748.703 724.325 C 744.129 645.345 670.602 636.12 607.963 629.304 C 566.372 624.778 537 618.978 494.593 621.204 C 526.405 560.304 593.069 543.434 655.759 532.04 C 670.339 529.39 686.433 528.767 700.398 524.002 C 708.004 521.407 716.216 509.616 723.1 505.096 C 755.048 481.08 785.381 470.904 824.522 467.404 z"/>
    <path fill="rgb(85,5,160)" d="M 821.852 532.4 C 834.849 532.579 843.344 533.513 856.131 535.884 C 848.243 538.522 842.443 540.447 834.936 543.905 C 842.924 568.671 825.71 588.672 801.607 576.243 C 798.122 573.256 792.783 567.289 789.426 563.726 C 780.196 562.269 769.047 561.64 759.604 560.872 C 778.22 547.415 798.844 534.759 821.852 532.4 z"/>
    <path fill="rgb(254,254,254)" d="M 1546.64 888.64 C 1547.53 891.334 1547.85 894.29 1548.07 897.127 C 1551.87 944.66 1554.08 993.632 1553.34 1041.3 C 1551.22 1178.28 1534.72 1319.98 1444.83 1429.6 C 1377.19 1512.1 1278.68 1568.28 1172.16 1579.16 C 1092.62 1587.29 1007.93 1571.51 945.238 1519.72 C 900.091 1482.42 868.342 1426.87 863.295 1368.17 C 857.655 1302.56 879.505 1246.61 920.704 1196.83 C 926.704 1189.71 934.586 1182.03 941.173 1175.28 C 922.077 1246.2 937.746 1325.44 985.427 1381.91 C 1024.04 1427.76 1079.56 1456.03 1139.35 1460.3 C 1230.93 1467.34 1326.29 1420.12 1382.32 1348.63 C 1420.68 1299.68 1447.92 1232.57 1452.39 1170.44 C 1414.4 1184.49 1374.86 1203.42 1336.51 1218.25 C 1350.75 1197.75 1365.47 1173.82 1379 1152.64 L 1450.95 1040.03 L 1509.69 947.686 C 1521.37 929.377 1536.24 907.351 1546.64 888.64 z"/>
  </g>
  <text x="460" y="295" font-family="Geist, ui-sans-serif, system-ui, sans-serif" font-size="104" font-weight="700" fill="rgb(254,254,254)" letter-spacing="-2">Hookcrow</text>
  <text x="460" y="365" font-family="Geist, ui-sans-serif, system-ui, sans-serif" font-size="36" font-weight="400" fill="rgb(254,254,254)" opacity="0.8">Video anatomy templates for marketers</text>
  <text x="460" y="445" font-family="Geist, ui-sans-serif, system-ui, sans-serif" font-size="26" font-weight="500" fill="rgb(254,254,254)" opacity="0.65">Hooks · Bridges · CTAs — reverse-engineered.</text>
</svg>
